<mxfile host="app.diagrams.net" agent="Mozilla/5.0 (Windows NT 10.0; Win64; x64) AppleWebKit/537.36 (KHTML, like Gecko) Chrome/136.0.0.0 Safari/537.36" version="27.0.6">
  <diagram name="Page-1" id="Owrwrn5Zo2xbhbuYY84t">
    <mxGraphModel dx="769" dy="342" grid="1" gridSize="10" guides="1" tooltips="1" connect="1" arrows="1" fold="1" page="1" pageScale="1" pageWidth="850" pageHeight="1100" math="0" shadow="0">
      <root>
        <mxCell id="0" />
        <mxCell id="1" parent="0" />
        <mxCell id="NkpN7JXSiqybtax3H9bK-12" value="Server" style="swimlane;whiteSpace=wrap;html=1;" vertex="1" parent="1">
          <mxGeometry x="140" y="40" width="260" height="360" as="geometry" />
        </mxCell>
        <mxCell id="NkpN7JXSiqybtax3H9bK-80" value="" style="endArrow=classic;html=1;rounded=0;exitX=0.5;exitY=0;exitDx=0;exitDy=0;entryX=0;entryY=0.5;entryDx=0;entryDy=0;" edge="1" parent="NkpN7JXSiqybtax3H9bK-12" source="NkpN7JXSiqybtax3H9bK-35" target="NkpN7JXSiqybtax3H9bK-82">
          <mxGeometry relative="1" as="geometry">
            <mxPoint x="210" y="180" as="sourcePoint" />
            <mxPoint x="100" y="120" as="targetPoint" />
            <Array as="points">
              <mxPoint x="180" y="170" />
              <mxPoint x="50" y="170" />
              <mxPoint x="50" y="160" />
              <mxPoint x="50" y="140" />
            </Array>
          </mxGeometry>
        </mxCell>
        <mxCell id="NkpN7JXSiqybtax3H9bK-81" value="Correct" style="edgeLabel;resizable=0;html=1;;align=center;verticalAlign=middle;" connectable="0" vertex="1" parent="NkpN7JXSiqybtax3H9bK-80">
          <mxGeometry relative="1" as="geometry" />
        </mxCell>
        <mxCell id="NkpN7JXSiqybtax3H9bK-47" value="" style="rounded=1;whiteSpace=wrap;html=1;" vertex="1" parent="NkpN7JXSiqybtax3H9bK-12">
          <mxGeometry x="150" y="270" width="60" height="40" as="geometry" />
        </mxCell>
        <mxCell id="NkpN7JXSiqybtax3H9bK-8" value="" style="rounded=1;whiteSpace=wrap;html=1;" vertex="1" parent="NkpN7JXSiqybtax3H9bK-12">
          <mxGeometry x="100" y="30" width="120" height="60" as="geometry" />
        </mxCell>
        <mxCell id="NkpN7JXSiqybtax3H9bK-9" value="create LoginRH" style="text;html=1;align=center;verticalAlign=middle;whiteSpace=wrap;rounded=0;" vertex="1" parent="NkpN7JXSiqybtax3H9bK-12">
          <mxGeometry x="100" y="30" width="120" height="60" as="geometry" />
        </mxCell>
        <mxCell id="NkpN7JXSiqybtax3H9bK-35" value="" style="rounded=1;whiteSpace=wrap;html=1;" vertex="1" parent="NkpN7JXSiqybtax3H9bK-12">
          <mxGeometry x="150" y="200" width="60" height="40" as="geometry" />
        </mxCell>
        <mxCell id="NkpN7JXSiqybtax3H9bK-44" value="Verify info" style="text;html=1;align=center;verticalAlign=middle;whiteSpace=wrap;rounded=0;" vertex="1" parent="NkpN7JXSiqybtax3H9bK-12">
          <mxGeometry x="150" y="205" width="60" height="30" as="geometry" />
        </mxCell>
        <mxCell id="NkpN7JXSiqybtax3H9bK-90" style="edgeStyle=orthogonalEdgeStyle;rounded=0;orthogonalLoop=1;jettySize=auto;html=1;entryX=0;entryY=0.5;entryDx=0;entryDy=0;" edge="1" parent="NkpN7JXSiqybtax3H9bK-12" source="NkpN7JXSiqybtax3H9bK-45" target="NkpN7JXSiqybtax3H9bK-82">
          <mxGeometry relative="1" as="geometry">
            <mxPoint x="75" y="130" as="targetPoint" />
            <Array as="points">
              <mxPoint x="10" y="253" />
              <mxPoint x="10" y="190" />
              <mxPoint x="30" y="190" />
              <mxPoint x="30" y="140" />
            </Array>
          </mxGeometry>
        </mxCell>
        <mxCell id="NkpN7JXSiqybtax3H9bK-45" value="Save Login Info" style="rounded=1;whiteSpace=wrap;html=1;" vertex="1" parent="NkpN7JXSiqybtax3H9bK-12">
          <mxGeometry x="50" y="230" width="50" height="50" as="geometry" />
        </mxCell>
        <mxCell id="NkpN7JXSiqybtax3H9bK-48" value="Verify info" style="text;html=1;align=center;verticalAlign=middle;whiteSpace=wrap;rounded=0;" vertex="1" parent="NkpN7JXSiqybtax3H9bK-12">
          <mxGeometry x="150" y="275" width="60" height="30" as="geometry" />
        </mxCell>
        <mxCell id="NkpN7JXSiqybtax3H9bK-82" value="Create MenuRH" style="rounded=1;whiteSpace=wrap;html=1;" vertex="1" parent="NkpN7JXSiqybtax3H9bK-12">
          <mxGeometry x="130" y="120" width="50" height="40" as="geometry" />
        </mxCell>
        <mxCell id="NkpN7JXSiqybtax3H9bK-88" value="" style="endArrow=classic;html=1;rounded=0;exitX=0;exitY=0.5;exitDx=0;exitDy=0;entryX=1;entryY=0.5;entryDx=0;entryDy=0;" edge="1" parent="NkpN7JXSiqybtax3H9bK-12" source="NkpN7JXSiqybtax3H9bK-48" target="NkpN7JXSiqybtax3H9bK-45">
          <mxGeometry relative="1" as="geometry">
            <mxPoint x="210" y="180" as="sourcePoint" />
            <mxPoint x="310" y="180" as="targetPoint" />
            <Array as="points">
              <mxPoint x="140" y="290" />
              <mxPoint x="140" y="253" />
            </Array>
          </mxGeometry>
        </mxCell>
        <mxCell id="NkpN7JXSiqybtax3H9bK-89" value="Correct" style="edgeLabel;resizable=0;html=1;;align=center;verticalAlign=middle;" connectable="0" vertex="1" parent="NkpN7JXSiqybtax3H9bK-88">
          <mxGeometry relative="1" as="geometry" />
        </mxCell>
        <mxCell id="NkpN7JXSiqybtax3H9bK-85" value="" style="endArrow=classic;html=1;rounded=0;entryX=0;entryY=0.5;entryDx=0;entryDy=0;exitX=0.5;exitY=0;exitDx=0;exitDy=0;" edge="1" parent="NkpN7JXSiqybtax3H9bK-12" source="NkpN7JXSiqybtax3H9bK-35" target="NkpN7JXSiqybtax3H9bK-9">
          <mxGeometry relative="1" as="geometry">
            <mxPoint x="220" y="200" as="sourcePoint" />
            <mxPoint x="350" y="180" as="targetPoint" />
            <Array as="points">
              <mxPoint x="180" y="180" />
              <mxPoint x="120" y="180" />
              <mxPoint x="120" y="160" />
              <mxPoint x="80" y="160" />
              <mxPoint x="80" y="60" />
            </Array>
          </mxGeometry>
        </mxCell>
        <mxCell id="NkpN7JXSiqybtax3H9bK-86" value="Incorrect" style="edgeLabel;resizable=0;html=1;;align=center;verticalAlign=middle;" connectable="0" vertex="1" parent="NkpN7JXSiqybtax3H9bK-85">
          <mxGeometry relative="1" as="geometry" />
        </mxCell>
        <mxCell id="NkpN7JXSiqybtax3H9bK-93" value="" style="endArrow=classic;html=1;rounded=0;exitX=0;exitY=0.5;exitDx=0;exitDy=0;entryX=0;entryY=0.5;entryDx=0;entryDy=0;" edge="1" parent="NkpN7JXSiqybtax3H9bK-12" source="NkpN7JXSiqybtax3H9bK-48" target="NkpN7JXSiqybtax3H9bK-9">
          <mxGeometry relative="1" as="geometry">
            <mxPoint x="240" y="180" as="sourcePoint" />
            <mxPoint x="340" y="180" as="targetPoint" />
            <Array as="points">
              <mxPoint x="30" y="290" />
              <mxPoint x="30" y="60" />
            </Array>
          </mxGeometry>
        </mxCell>
        <mxCell id="NkpN7JXSiqybtax3H9bK-94" value="Incorrect" style="edgeLabel;resizable=0;html=1;;align=center;verticalAlign=middle;" connectable="0" vertex="1" parent="NkpN7JXSiqybtax3H9bK-93">
          <mxGeometry relative="1" as="geometry" />
        </mxCell>
        <mxCell id="NkpN7JXSiqybtax3H9bK-13" value="Client" style="swimlane;whiteSpace=wrap;html=1;" vertex="1" parent="1">
          <mxGeometry x="400" y="40" width="240" height="360" as="geometry" />
        </mxCell>
        <mxCell id="NkpN7JXSiqybtax3H9bK-14" value="" style="rounded=1;whiteSpace=wrap;html=1;" vertex="1" parent="NkpN7JXSiqybtax3H9bK-13">
          <mxGeometry x="40" y="40" width="65" height="40" as="geometry" />
        </mxCell>
        <mxCell id="NkpN7JXSiqybtax3H9bK-15" value="Connect" style="text;html=1;align=center;verticalAlign=middle;whiteSpace=wrap;rounded=0;" vertex="1" parent="NkpN7JXSiqybtax3H9bK-13">
          <mxGeometry x="42.5" y="45" width="60" height="30" as="geometry" />
        </mxCell>
        <mxCell id="NkpN7JXSiqybtax3H9bK-20" value="" style="rounded=1;whiteSpace=wrap;html=1;" vertex="1" parent="NkpN7JXSiqybtax3H9bK-13">
          <mxGeometry x="80" y="125" width="60" height="40" as="geometry" />
        </mxCell>
        <mxCell id="NkpN7JXSiqybtax3H9bK-33" style="edgeStyle=orthogonalEdgeStyle;rounded=0;orthogonalLoop=1;jettySize=auto;html=1;entryX=0.5;entryY=0;entryDx=0;entryDy=0;" edge="1" parent="NkpN7JXSiqybtax3H9bK-13" source="NkpN7JXSiqybtax3H9bK-22" target="NkpN7JXSiqybtax3H9bK-30">
          <mxGeometry relative="1" as="geometry" />
        </mxCell>
        <mxCell id="NkpN7JXSiqybtax3H9bK-34" style="edgeStyle=orthogonalEdgeStyle;rounded=0;orthogonalLoop=1;jettySize=auto;html=1;entryX=0.5;entryY=0;entryDx=0;entryDy=0;" edge="1" parent="NkpN7JXSiqybtax3H9bK-13" source="NkpN7JXSiqybtax3H9bK-22" target="NkpN7JXSiqybtax3H9bK-29">
          <mxGeometry relative="1" as="geometry" />
        </mxCell>
        <mxCell id="NkpN7JXSiqybtax3H9bK-22" value="Login Or signup?" style="text;html=1;align=center;verticalAlign=middle;whiteSpace=wrap;rounded=0;" vertex="1" parent="NkpN7JXSiqybtax3H9bK-13">
          <mxGeometry x="80" y="130" width="60" height="30" as="geometry" />
        </mxCell>
        <mxCell id="NkpN7JXSiqybtax3H9bK-25" value="" style="rounded=1;whiteSpace=wrap;html=1;" vertex="1" parent="NkpN7JXSiqybtax3H9bK-13">
          <mxGeometry x="120" y="200" width="75" height="40" as="geometry" />
        </mxCell>
        <mxCell id="NkpN7JXSiqybtax3H9bK-26" value="" style="rounded=1;whiteSpace=wrap;html=1;" vertex="1" parent="NkpN7JXSiqybtax3H9bK-13">
          <mxGeometry x="27.5" y="200" width="75" height="40" as="geometry" />
        </mxCell>
        <mxCell id="NkpN7JXSiqybtax3H9bK-29" value="Login" style="text;html=1;align=center;verticalAlign=middle;whiteSpace=wrap;rounded=0;" vertex="1" parent="NkpN7JXSiqybtax3H9bK-13">
          <mxGeometry x="35" y="205" width="60" height="30" as="geometry" />
        </mxCell>
        <mxCell id="NkpN7JXSiqybtax3H9bK-30" value="Signup" style="text;html=1;align=center;verticalAlign=middle;whiteSpace=wrap;rounded=0;" vertex="1" parent="NkpN7JXSiqybtax3H9bK-13">
          <mxGeometry x="127.5" y="205" width="60" height="30" as="geometry" />
        </mxCell>
        <mxCell id="NkpN7JXSiqybtax3H9bK-18" value="" style="endArrow=classic;html=1;rounded=0;exitX=0;exitY=0.5;exitDx=0;exitDy=0;entryX=1;entryY=0.5;entryDx=0;entryDy=0;" edge="1" parent="1" source="NkpN7JXSiqybtax3H9bK-15" target="NkpN7JXSiqybtax3H9bK-8">
          <mxGeometry width="50" height="50" relative="1" as="geometry">
            <mxPoint x="400" y="220" as="sourcePoint" />
            <mxPoint x="450" y="170" as="targetPoint" />
          </mxGeometry>
        </mxCell>
        <mxCell id="NkpN7JXSiqybtax3H9bK-24" style="edgeStyle=orthogonalEdgeStyle;rounded=0;orthogonalLoop=1;jettySize=auto;html=1;exitX=0.5;exitY=1;exitDx=0;exitDy=0;entryX=0.5;entryY=0;entryDx=0;entryDy=0;" edge="1" parent="1" source="NkpN7JXSiqybtax3H9bK-9" target="NkpN7JXSiqybtax3H9bK-22">
          <mxGeometry relative="1" as="geometry" />
        </mxCell>
        <mxCell id="NkpN7JXSiqybtax3H9bK-40" value="" style="endArrow=classic;html=1;rounded=0;exitX=0.5;exitY=1;exitDx=0;exitDy=0;entryX=1;entryY=0.5;entryDx=0;entryDy=0;" edge="1" parent="1" source="NkpN7JXSiqybtax3H9bK-26" target="NkpN7JXSiqybtax3H9bK-35">
          <mxGeometry width="50" height="50" relative="1" as="geometry">
            <mxPoint x="460" y="340" as="sourcePoint" />
            <mxPoint x="465" y="320" as="targetPoint" />
            <Array as="points">
              <mxPoint x="465" y="300" />
              <mxPoint x="440" y="300" />
              <mxPoint x="410" y="300" />
              <mxPoint x="410" y="260" />
            </Array>
          </mxGeometry>
        </mxCell>
        <mxCell id="NkpN7JXSiqybtax3H9bK-49" style="edgeStyle=orthogonalEdgeStyle;rounded=0;orthogonalLoop=1;jettySize=auto;html=1;entryX=1;entryY=0.5;entryDx=0;entryDy=0;" edge="1" parent="1" source="NkpN7JXSiqybtax3H9bK-25" target="NkpN7JXSiqybtax3H9bK-48">
          <mxGeometry relative="1" as="geometry">
            <Array as="points">
              <mxPoint x="560" y="330" />
            </Array>
          </mxGeometry>
        </mxCell>
      </root>
    </mxGraphModel>
  </diagram>
</mxfile>
